# xmcd
#
# Track frame offsets: 
#        150
#        14560
#        26859
#        41615
#        54666
#        67462
#        82274
#        95514
#        108343
#        122932
#        135118
#        148545
#        160832
#        173401
#        186272
#        198620
#        210401
#        223172
#        235914
#        247930
#        260944
#        274694
#        288745
#        301541
#
# Disc length: 4197 seconds
#
# Revision: 0
# Processed by: cddbd v1.5.2PL0 Copyright (c) Steve Scherf et al.
# Submitted via: ExactAudioCopyFreeDBPlugin 1.0
#
DISCID=6f106318
DTITLE=Various Artist - Blue Ladies 1934-1941
DYEAR=1995
DGENRE=Blues
TTITLE0=Irene Sanders - A Woman's Blues
TTITLE1=Irene Sanders - Grieving And Leaving Blues
TTITLE2=Irene Sanders - Troublesome Mind
TTITLE3=Stella Johnson - Don't Come Over
TTITLE4=Stella Johnson - Hot Nuts Swing
TTITLE5=Stella Johnson - Mama Don't Want You No More
TTITLE6=Lorraine Walton - If You're A Viper
TTITLE7=Lorraine Walton - Waiting Blues
TTITLE8=Lorraine Walton - Whiskey Blues
TTITLE9=Lorraine Walton - Freight Train Blues
TTITLE10=Lorraine Walton - You Can't Take It With You
TTITLE11=Lorraine Walton - Down In My Heart
TTITLE12=Hattie Bolten - Down Home Shake
TTITLE13=Hattie Bolten - Move That Thing
TTITLE14=Hattie Bolten - Jumpin' Julia
TTITLE15=Hattie Bolten - Tired Of Your Evil Ways
TTITLE16=Hattie Bolten - Prize Fighter Blues
TTITLE17=Minnie Mathes - Ball Game Blues
TTITLE18=Minnie Mathes - Please Come Home Daddy Blues
TTITLE19=Minnie Mathes - Chicago Men Blues
TTITLE20=Kansas Katie - Don't You Know Me
TTITLE21=Kansas Katie - I Can't Let You Go
TTITLE22=Kansas Katie - Deep Sea Diver
TTITLE23=Kansas Katie - He's My Man
EXTD=
EXTT0=
EXTT1=
EXTT2=
EXTT3=
EXTT4=
EXTT5=
EXTT6=
EXTT7=
EXTT8=
EXTT9=
EXTT10=
EXTT11=
EXTT12=
EXTT13=
EXTT14=
EXTT15=
EXTT16=
EXTT17=
EXTT18=
EXTT19=
EXTT20=
EXTT21=
EXTT22=
EXTT23=
PLAYORDER=
